<svg xmlns="http://www.w3.org/2000/svg" width="417" height="63" fill="none"><path fill="#fff" d="M6.939 24.892c.105-.223.63-.63.827-.63.066 0 .066.039.132.065l4.426 11.585c.302.8.499 1.34.538 1.431.224.526 1.3.736 1.471.736.105.157.066.565.04.63-.867-.04-1.432-.105-2.39-.105-.96 0-1.524.066-2.51.105-.104-.105-.091-.525.027-.63.263 0 1.024-.105 1.208-.276.066-.066.092-.17.092-.302 0-.657-1.47-4.23-1.47-4.23s-.067-.091-.132-.091c-.565-.04-1.603-.027-2.141-.027-.893 0-1.366 0-2.338.066-.04 0-.105.066-.105.066s-.604 1.602-.972 2.64c-.263.762-.302 1.26-.302 1.536 0 .526 1.326.605 1.497.605.066.065.092.499.04.63-.867-.04-1.156-.105-2.102-.105s-1.326.066-2.325.105c-.065-.066-.065-.473 0-.63.263 0 1.09-.132 1.3-.408.434-.564.71-1.26 1.025-2.035 0 0 2.863-7.356 4.19-10.731h-.026Zm-1.931 7.29s0 .091.04.091c.564.027 1.47.04 1.97.04.67 0 1.155-.027 1.825-.066.04 0 .066-.105.066-.105l-1.905-5.254-1.996 5.293ZM29.74 28.11c0 1.563-1.497 3.073-2.955 3.572 1.155 1.905 2.062 3.205 3.493 5.096.63.828 1.261 1.209 2.456 1.3.105.106 0 .592-.026.631-1.458 0-2.43-.105-2.863-.263-.302-.105-.893-.276-1.405-.959-.329-.433-2.076-3.007-3.442-5.135-.131-.197-.341-.263-.656-.263h-1.156v4.033c0 .656 0 1.26.105 1.602.066.236 1.235.342 1.497.342.092.104.105.525 0 .63-.893-.04-1.694-.105-2.535-.105-.84 0-1.668.066-2.56.105-.106-.105-.093-.526 0-.63.262 0 1.43-.106 1.496-.342.105-.341.105-.959.105-1.602v-9.26c0-.657 0-1.261-.105-1.602-.065-.237-1.234-.342-1.497-.342-.092-.105-.105-.525 0-.63.893.039 1.707.105 2.561.105.854 0 1.8-.04 3.074-.04 1.97 0 4.4 1.274 4.4 3.757h.013Zm-5.359-3.06c-.263 0-.998.026-1.09.21-.105.262-.105.971-.105 1.628v4.531h1.169c1.694 0 3.362-1.208 3.362-3.125 0-1.918-.932-3.258-3.336-3.258v.013ZM42.874 24.892c.105-.223.63-.63.828-.63.065 0 .065.039.13.065l4.427 11.585c.302.8.5 1.34.539 1.431.223.526 1.3.736 1.47.736.106.157.066.565.04.63-.867-.04-1.432-.105-2.39-.105-.96 0-1.524.066-2.509.105-.105-.105-.092-.525.026-.63.263 0 1.025-.105 1.209-.276.065-.066.092-.17.092-.302 0-.657-1.471-4.23-1.471-4.23s-.066-.091-.132-.091c-.565-.04-1.602-.027-2.14-.027-.894 0-1.367 0-2.339.066-.039 0-.105.066-.105.066s-.604 1.602-.972 2.64c-.262.762-.302 1.26-.302 1.536 0 .526 1.327.605 1.498.605.065.065.091.499.039.63-.867-.04-1.156-.105-2.101-.105-.946 0-1.327.066-2.325.105-.066-.066-.066-.473 0-.63.262 0 1.09-.132 1.3-.408.434-.564.71-1.26 1.025-2.035 0 0 2.863-7.356 4.19-10.731h-.027Zm-1.93 7.29s0 .091.039.091c.565.027 1.47.04 1.97.04.67 0 1.156-.027 1.825-.066.04 0 .066-.105.066-.105l-1.904-5.254-1.997 5.293ZM65.688 28.11c0 1.563-1.497 3.073-2.955 3.572 1.156 1.905 2.062 3.205 3.494 5.096.63.828 1.26 1.209 2.456 1.3.105.106 0 .592-.026.631-1.458 0-2.43-.105-2.864-.263-.302-.105-.893-.276-1.405-.959-.328-.433-2.088-3.007-3.441-5.135-.132-.197-.342-.263-.657-.263h-1.156v4.033c0 .656 0 1.26.105 1.602.066.236 1.235.342 1.498.342.092.104.105.525 0 .63-.894-.04-1.695-.105-2.535-.105-.84 0-1.668.066-2.561.105-.105-.105-.092-.526 0-.63.262 0 1.431-.106 1.497-.342.105-.341.105-.959.105-1.602v-9.26c0-.657 0-1.261-.105-1.602-.066-.237-1.235-.342-1.497-.342-.092-.105-.105-.525 0-.63.893.039 1.707.105 2.56.105.855 0 1.8-.04 3.074-.04 1.97 0 4.4 1.274 4.4 3.757h.013Zm-5.358-3.06c-.263 0-.999.026-1.09.21-.106.262-.106.971-.106 1.628v4.531h1.17c1.694 0 3.362-1.208 3.362-3.125 0-1.918-.933-3.258-3.336-3.258v.013ZM78.823 24.892c.105-.223.63-.63.827-.63.066 0 .066.039.131.065l4.427 11.585c.302.8.499 1.34.538 1.431.223.526 1.3.736 1.471.736.105.157.066.565.04.63-.867-.04-1.432-.105-2.39-.105-.96 0-1.524.066-2.523.105-.105-.105-.092-.525.027-.63.262 0 1.024-.105 1.208-.276.066-.066.092-.17.092-.302 0-.657-1.471-4.23-1.471-4.23s-.066-.091-.132-.091c-.564-.04-1.602-.027-2.14-.027-.894 0-1.366 0-2.338.066-.04 0-.105.066-.105.066s-.605 1.602-.972 2.64c-.263.762-.302 1.26-.302 1.536 0 .526 1.326.605 1.497.605.066.065.092.499.04.63-.868-.04-1.157-.105-2.102-.105-.946 0-1.327.066-2.325.105-.066-.066-.066-.473 0-.63.263 0 1.09-.132 1.3-.408.434-.564.71-1.26 1.025-2.035 0 0 2.863-7.356 4.19-10.731h-.013Zm-1.931 7.29s0 .091.04.091c.564.027 1.47.04 1.97.04.67 0 1.155-.027 1.825-.066.04 0 .066-.105.066-.105l-1.905-5.254-1.996 5.293ZM101.808 23.985c.223-.105.275-.105.407-.039.157 1.327.328 2.574.564 3.73a.557.557 0 0 1-.407.158c-.105 0-.262-.04-.302-.105-.302-1.524-.998-2.64-2.075-2.64h-2.758v11.059c0 .656 0 1.26.105 1.602.066.237 1.234.342 1.497.342.092.105.105.525 0 .63-.893-.04-1.694-.105-2.535-.105-.84 0-1.668.066-2.56.105-.106-.105-.093-.525 0-.63.262 0 1.43-.105 1.496-.342.106-.341.106-.959.106-1.602v-11.06h-2.798c-1.09 0-1.773 1.13-2.075 2.64-.04.066-.197.106-.302.106-.197.026-.342-.092-.408-.158.237-1.142.408-2.403.565-3.73.132-.066.368 0 .5.066.262.131.866.302 1.208.302h8.484c.342 0 1.038-.197 1.301-.329h-.013ZM123.111 32.615c-.236 0-.709-.066-.932-.171-.066-.04-.302-.223-.302-.473 0-.04.026-.131.105-.105.236.066.499.158.827.158 1.734 0 3.074-1.209 3.074-3.389 0-2.18-1.169-3.572-3.573-3.572-.263 0-.998.026-1.09.21-.105.262-.105.972-.105 1.628v9.234c0 .657 0 1.26.105 1.602.066.237 1.235.342 1.497.342.092.105.105.525 0 .63-.893-.04-1.694-.105-2.535-.105-.84 0-1.668.066-2.561.105-.105-.105-.092-.525 0-.63.263 0 1.432-.105 1.498-.342.105-.341.105-.959.105-1.602v-9.26c0-.657 0-1.26-.105-1.602-.066-.237-1.235-.342-1.498-.342-.092-.105-.105-.525 0-.63.893.04 1.708.105 2.561.105.854 0 1.8-.04 3.074-.04 2.298 0 4.623 1.393 4.623 3.901 0 2.64-1.931 4.36-4.768 4.36v-.012ZM138.216 24.892c.105-.223.63-.63.827-.63.066 0 .066.039.132.065l4.426 11.585c.302.8.499 1.34.538 1.431.224.526 1.301.736 1.471.736.105.157.066.565.04.63-.867-.04-1.432-.105-2.391-.105-.958 0-1.523.066-2.521.105-.106-.105-.092-.525.026-.63.262 0 1.024-.105 1.208-.276.066-.066.092-.17.092-.302 0-.657-1.471-4.23-1.471-4.23s-.066-.091-.131-.091c-.565-.04-1.603-.027-2.141-.027-.893 0-1.366 0-2.338.066-.039 0-.105.066-.105.066s-.604 1.602-.972 2.64c-.263.762-.302 1.26-.302 1.536 0 .526 1.326.605 1.497.605.066.065.092.499.04.63-.867-.04-1.156-.105-2.102-.105s-1.327.066-2.325.105c-.065-.066-.065-.473 0-.63.263 0 1.09-.132 1.301-.408.433-.564.709-1.26 1.024-2.035 0 0 2.863-7.356 4.19-10.731h-.013Zm-1.931 7.29s0 .091.039.091a51.8 51.8 0 0 0 1.971.04c.669 0 1.155-.027 1.825-.066.04 0 .066-.105.066-.105l-1.905-5.254-1.996 5.293ZM161.017 28.11c0 1.563-1.497 3.073-2.955 3.572 1.155 1.905 2.062 3.205 3.493 5.096.631.828 1.261 1.209 2.457 1.3.105.106-.001.592-.027.631-1.458 0-2.43-.105-2.863-.263-.302-.105-.893-.276-1.405-.959-.329-.433-2.076-3.007-3.442-5.135-.131-.197-.341-.263-.656-.263h-1.156v4.033c0 .656 0 1.26.105 1.602.066.236 1.235.342 1.497.342.092.104.105.525 0 .63-.893-.04-1.694-.105-2.535-.105-.84 0-1.668.066-2.561.105-.105-.105-.092-.526 0-.63.263 0 1.432-.106 1.497-.342.106-.341.106-.959.106-1.602v-9.26c0-.657 0-1.261-.106-1.602-.065-.237-1.234-.342-1.497-.342-.092-.105-.105-.525 0-.63.893.039 1.708.105 2.561.105.854 0 1.8-.04 3.074-.04 1.97 0 4.4 1.274 4.4 3.757h.013Zm-5.359-3.06c-.263 0-.998.026-1.09.21-.105.262-.105.971-.105 1.628v4.531h1.169c1.694 0 3.362-1.208 3.362-3.125 0-1.918-.932-3.258-3.336-3.258v.013ZM173.98 24.288c.106.105.092.59 0 .696-.262 0-1.431.105-1.497.341-.105.342-.105.959-.105 1.603v4.32c.46-.275 1.563-1.326 2.456-2.193 1.695-1.668 2.102-2.101 2.758-2.955.132-.17.302-.46.302-.67 0-.538-1.024-.473-1.208-.473-.066-.13-.066-.472 0-.67.801.04 1.694.132 2.496.132.958 0 1.471-.092 2.338-.131.039.13.065.67-.04.67-.197.026-1.405 0-2.141.8-1.865 2.037-3.126 3.166-5.004 4.992-.039.065-.039.105 0 .17 2.075 2.43 3.888 4.571 5.556 6.16.538.5 1.169.907 2.364.999.105.105 0 .59-.026.63-1.458 0-2.64-.092-3.074-.236a3.748 3.748 0 0 1-1.471-.933c-.459-.46-2.43-2.692-4.873-5.49-.039-.066-.105-.066-.197-.066a.756.756 0 0 0-.197.04v4.032c0 .657 0 1.26.106 1.602.065.237 1.234.342 1.497.342.092.105.105.59 0 .696-.893-.04-1.694-.105-2.535-.105-.841 0-1.668.066-2.561.105-.105-.105-.092-.591 0-.696.262 0 1.431-.105 1.497-.342.105-.341.105-.959.105-1.602v-9.128c0-.657 0-1.261-.105-1.603-.066-.236-1.235-.341-1.497-.341-.092-.105-.105-.591 0-.696.893.039 1.707.105 2.561.105.854 0 1.642-.066 2.535-.105h-.04ZM201.812 24.288c.105.105.092.59 0 .696-.263 0-1.432.105-1.497.341-.105.342-.105.96-.105 1.603v3.796l.039.065c1.064.026 2.193.066 3.402.066 1.024 0 2.338-.04 3.323-.066 0 0 .039-.04.039-.092v-3.77c0-.656 0-1.26-.105-1.602-.066-.236-1.235-.341-1.497-.341-.092-.105-.105-.591 0-.696.893.04 1.707.105 2.561.105.854 0 1.642-.066 2.535-.105.105.105.092.59 0 .696-.263 0-1.432.105-1.497.341-.106.342-.106.96-.106 1.603v9.128c0 .657 0 1.261.106 1.602.065.237 1.234.342 1.497.342.092.105.105.591 0 .696-.893-.04-1.694-.105-2.535-.105-.841 0-1.668.066-2.561.105-.105-.105-.092-.59 0-.696.262 0 1.431-.105 1.497-.342.105-.341.105-.958.105-1.602v-4.295l-.039-.092c-1.025-.026-2.207-.092-3.323-.092-3.021 0-3.336.092-3.428.132-.027.026-.027.04-.027.04v4.294c0 .657 0 1.26.106 1.602.065.237 1.234.342 1.497.342.092.105.105.59 0 .696-.893-.04-1.694-.105-2.535-.105-.841 0-1.668.066-2.561.105-.105-.105-.092-.591 0-.696.262 0 1.431-.105 1.497-.342.105-.341.105-.958.105-1.602v-9.128c0-.657 0-1.261-.105-1.603-.066-.236-1.235-.341-1.497-.341-.092-.105-.105-.591 0-.696.893.04 1.707.105 2.561.105.854 0 1.642-.066 2.535-.105l.013.013ZM230.891 31.525c0 4.058-3.257 7.329-7.066 7.329-3.809 0-7.027-3.035-7.027-7.33 0-4.058 3.205-7.355 7.027-7.355s7.066 3.034 7.066 7.356Zm-11.952-.473c0 3.362 1.865 7.066 5.227 7.066 3.363 0 4.571-3.257 4.571-6.186 0-3.363-1.891-7.027-5.254-7.027-3.362 0-4.557 3.231-4.557 6.134l.013.013ZM248.596 23.985c.223-.105.276-.105.407-.039.158 1.327.329 2.574.565 3.73a.559.559 0 0 1-.407.158c-.105 0-.263-.04-.302-.105-.302-1.524-.998-2.64-2.075-2.64h-2.759v11.059c0 .656 0 1.26.106 1.602.065.237 1.234.342 1.497.342.092.105.105.525 0 .63-.893-.04-1.694-.105-2.535-.105-.841 0-1.668.066-2.561.105-.105-.105-.092-.525 0-.63.262 0 1.431-.105 1.497-.342.105-.341.105-.959.105-1.602v-11.06h-2.797c-1.091 0-1.774 1.13-2.089 2.64-.039.066-.197.106-.302.106-.197.026-.341-.092-.407-.158.236-1.142.407-2.403.565-3.73.131-.066.367 0 .499.066.262.131.867.302 1.208.302h8.485c.341 0 1.038-.197 1.3-.329ZM264.817 24.248c.158 1.09.434 1.97.631 2.955-.066.066-.237.105-.394.105-.158 0-.276-.039-.303-.157-.472-1.734-1.365-2.036-2.521-2.036h-1.865c-.263 0-1.432.026-1.498.237-.105.341-.105.958-.105 1.536v4.059c0 .105.46.131.933.131h1.156c2.075 0 2.022-.131 2.39-1.563.026-.105.171-.157.328-.157.158 0 .302.039.368.104v4.098s-.197.092-.341.092c-.145 0-.302-.065-.342-.17-.328-1.235-.407-1.3-.604-1.432-.236-.158-1.471-.17-2.299-.17-.604 0-1.562 0-1.562.196V36.2c0 .329-.001 1.393.131 1.498.276.21.63.21 1.537.21h1.037c1.025 0 2.128-.21 2.732-.591.696-.407 1.025-1.261 1.366-2.194.026-.091.158-.13.302-.13.223 0 .473.065.539.13-.408 1.17-1.025 2.64-1.169 3.6-2.364 0-4.505-.093-7.395-.093-1.024 0-1.734.066-2.574.066-.105-.105-.092-.525 0-.63.262 0 1.431-.106 1.497-.342.105-.341.105-.959.105-1.602v-9.26c0-.657 0-1.26-.105-1.602-.066-.237-1.235-.342-1.497-.342-.092-.105-.105-.525 0-.63.893.039 1.707.105 2.561.105 2.036 0 4.623-.158 6.987-.158l-.026.013ZM276.06 37.685c.276.21.63.21 1.537.21h1.234c.828 0 1.931-.17 2.535-.591.539-.368 1.025-1.038 1.366-2.194.027-.091.158-.13.302-.13.224 0 .473.065.539.13-.407 1.17-1.025 2.64-1.169 3.6-2.364 0-4.505-.093-7.395-.093-1.024 0-1.733.066-2.574.066-.105-.105-.092-.525 0-.63.263 0 1.432-.106 1.497-.342.105-.341.105-.959.105-1.602v-9.26c0-.657 0-1.26-.105-1.602-.065-.237-1.234-.342-1.497-.342-.092-.105-.105-.525 0-.63.893.04 1.707.105 2.561.105.854 0 1.642-.066 2.535-.105.105.105.092.525 0 .63-.263 0-1.432.105-1.497.342-.105.341-.105.958-.105 1.602v9.26c0 .328 0 1.457.131 1.563v.013ZM302.552 24.288c.433 1.366 3.06 7.329 4.597 11.19.026.04.066.04.092.04.026 0 .092-.027.105-.092 1.274-3.297 2.062-5.333 3.323-8.538.394-.998.959-2.6.959-2.6.696.04 1.3.092 1.707.092.762 0 1.891-.04 2.43-.092.026.066.066.63.066.63-.302 0-1.432.171-1.537.394-.092.197-.105.565-.105.828.039 1.497.157 6.659.21 9.47.026.84.066 1.589.263 2.101.105.302 1.339.368 1.523.368.105.197.066.565.04.63-.867-.04-1.629-.105-2.575-.105-.945 0-1.602.066-2.6.105-.04-.04-.092-.46 0-.63.262 0 1.156-.092 1.405-.237.158-.092.197-.604.197-.906 0-.302-.039-.932-.039-1.26-.092-3.127-.158-5.767-.276-9.287 0-.092-.04-.433-.197-.433-.04 0-.066.04-.105.157-1.773 4.466-2.903 7.29-4.571 11.467-.092.197-.591 1.064-.827 1.103-.066.026-.132-.026-.197-.04l-5.294-12.66c-.091 4.727-.275 10.822-.275 11.032 0 .197.026.499.092.67.131.328 1.536.394 1.707.394.105.131.066.565.039.63-.866-.04-1.339-.105-2.298-.105-.959 0-1.537.066-2.535.105-.039-.04-.092-.46 0-.63.263 0 1.563-.105 1.76-.394.197-.276.236-.63.263-1.09.197-5.202.302-9.97.302-10.363 0-.302 0-.63-.092-.867-.092-.263-1.261-.46-1.524-.46-.039 0-.039-.59 0-.63.998.04 1.235.105 2.233.105.736 0 1.274-.066 1.76-.105l-.026.013ZM336.32 31.525c0 4.058-3.257 7.329-7.066 7.329-3.809 0-7.027-3.035-7.027-7.33 0-4.058 3.205-7.355 7.027-7.355s7.066 3.034 7.066 7.356Zm-11.952-.473c0 3.362 1.865 7.066 5.227 7.066 3.363 0 4.571-3.257 4.571-6.186 0-3.363-1.891-7.027-5.254-7.027-3.362 0-4.557 3.231-4.557 6.134l.013.013ZM350.768 24.813c.17 1.13.262 2.495.302 3.073.026.158-.302.237-.46.237a.358.358 0 0 1-.236-.092c-.132-1.09-1.195-3.1-3.034-3.1-1.839 0-2.364 1.366-2.364 2.404 0 1.733 1.602 2.456 3.034 3.362 1.431.906 3.769 2.036 3.769 4.19 0 2.39-2.206 3.966-4.531 3.966-1.471 0-2.837-.407-3.901-.63-.263-1.274-.46-3.1-.46-3.362.132-.132.368-.263.565-.263.158 0 .223.092.236.197.171.827.999 3.323 3.599 3.323 1.406 0 2.601-.959 2.601-2.64 0-1.8-1.392-2.26-2.89-3.126-1.668-.972-3.769-2.14-3.769-4.334 0-2.299 2.075-3.822 4.255-3.822 1.34 0 1.839.275 3.271.604l.013.013ZM370.128 24.629s.499 2.995.499 3.205c.026.131-.263.276-.473.276a.454.454 0 0 1-.263-.066c-.131-.67-.63-3.165-4.255-3.165-3.205 0-5.293 3.27-5.293 6.304 0 3.389 1.865 6.856 5.634 6.856 1.327 0 2.233-.473 2.864-1.038.84-.761 1.168-1.799 1.326-2.521.223-.026.499.04.696.17 0 .434-.46 2.864-.762 3.126-1.195.67-2.666.972-4.662.972-4.295 0-7.237-3.27-7.237-7.118 0-4.059 3.06-7.487 7.329-7.487 1.431 0 2.994.105 4.597.46v.026ZM391.366 31.525c0 4.058-3.258 7.329-7.066 7.329-3.809 0-7.027-3.035-7.027-7.33 0-4.058 3.204-7.355 7.027-7.355 3.822 0 7.066 3.034 7.066 7.356Zm-11.952-.473c0 3.362 1.865 7.066 5.227 7.066s4.571-3.257 4.571-6.186c0-3.363-1.892-7.027-5.254-7.027-3.362 0-4.558 3.231-4.558 6.134l.014.013ZM401.374 24.288c.04.131.04.604-.039.63-.171 0-1.301.105-1.301.71 0 .157.106.656.329 1.405.499 1.8 1.602 5.306 2.508 8.393 1.025-3.363 2.627-8.301 3.271-10.429.131-.407.538-.71.775-.71.092 0 .157.106.262.342.158.473 1.997 6.423 3.442 10.731.932-3.323 1.471-5.03 2.272-8.09.131-.526.263-1.13.263-1.524 0-.696-1.209-.84-1.471-.84-.106-.04-.106-.526 0-.631.801.04 1.536.105 2.337.105.999 0 1.169-.066 2.036-.105.066.105.027.63-.039.63-.171 0-.933.197-1.366.565-.302.263-.525.762-.775 1.642-1.195 4.098-1.957 6.935-3.1 10.822-.105.394-.538.736-.827.736-.092 0-.197-.263-.223-.342-1.064-3.139-3.56-10.73-3.56-10.717-1.208 3.993-2.101 6.488-3.257 10.323-.105.394-.539.736-.828.736-.092 0-.197-.263-.223-.342-1.261-4.006-2.141-6.96-3.467-11.23-.263-.866-.368-1.365-.775-1.76-.302-.275-.998-.433-1.261-.433-.04 0-.04-.59 0-.63.998.04 1.642.105 2.64.105.998 0 1.471-.066 2.338-.105l.039.013ZM72.269 1.184V.672h271.958v.512H72.269ZM72.269 62.088v-.512h271.958v.512H72.269Z"/></svg>