<svg width="42" height="42" viewBox="0 0 42 42" fill="none" xmlns="http://www.w3.org/2000/svg">
<path d="M21 0C9.402 0 0 9.402 0 21C0 32.598 9.402 42 21 42C32.598 42 42 32.598 42 21C42 9.402 32.598 0 21 0ZM37.215 30.5828L30.315 32.0085L27.069 27.5565L29.7488 19.3073L34.977 17.6115L39.765 22.8682C39.4882 25.6672 38.583 28.2773 37.215 30.5828ZM11.6985 32.0092L4.78275 30.5798C3.41625 28.275 2.511 25.6665 2.23425 22.8698L7.023 17.6123L12.2513 19.3087L14.9317 27.5595L11.6985 32.0092ZM5.58 16.02L2.205 19.7257C2.4195 16.5435 3.4215 13.581 5.02575 11.0227L5.58 16.02ZM16.8968 26.6745L14.358 18.8685L20.9992 14.043L27.642 18.8685L25.1033 26.6745H16.8968ZM36.4208 16.02L36.9743 11.0213C38.5785 13.5795 39.5805 16.542 39.795 19.7243L36.4208 16.02ZM35.097 8.51475L34.3147 15.5782L29.0865 17.274L22.0703 12.1762V6.68774L28.581 3.74476C31.089 4.85026 33.3022 6.4905 35.097 8.51475ZM25.617 2.73525L21 4.82249L16.383 2.73601C17.8635 2.36101 19.4048 2.1405 21 2.1405C22.5953 2.13975 24.1365 2.361 25.617 2.73525ZM13.4183 3.744L19.929 6.68699V12.1762L12.9135 17.274L7.68525 15.5782L6.9015 8.51626C8.697 6.49126 10.911 4.85025 13.4183 3.744ZM6.588 33.1387L11.4675 34.1467L13.9327 38.4727C11.0677 37.3102 8.55225 35.4675 6.588 33.1387ZM16.9268 39.4043L13.4287 33.2663L16.6627 28.8157H25.338L28.584 33.2685L25.089 39.4005C23.7705 39.6937 22.4047 39.8603 20.9992 39.8603C19.6005 39.8603 18.24 39.6953 16.9268 39.4043ZM28.0845 38.4668L30.546 34.1467L35.409 33.1418C33.4493 35.4645 30.9413 37.3043 28.0845 38.4668Z" fill="#C09948"/>
</svg>
