<svg xmlns="http://www.w3.org/2000/svg" width="24" height="15" fill="none"><path fill="#191A1F" d="M23.937 1.041c.046-.151.068-.291.062-.416-.015-.362-.264-.625-.85-.625h-2.618c-.661 0-.966.4-1.144.801 0 0-1.632 3.359-3.513 5.574-.61.641-.92.625-1.25.625-.177 0-.624-.214-.624-.801V1.014C14 .32 13.827 0 13.268 0H8.619C8.212 0 8 .32 8 .641c0 .667.898.827 1 2.696V6.96C9 7.84 8.847 8 8.517 8c-.89 0-2.642-3-3.815-6.932C4.448.294 4.194 0 3.533 0H.89C.127 0 0 .374 0 .774c0 .721.6 4.619 3.875 9.101C6.25 13.125 9.379 15 12.149 15c1.678 0 1.85-.427 1.85-1.094v-2.972c.001-.801.184-.934.718-.934.381 0 1.158.25 2.658 2 1.73 2.018 2.044 3 3.036 3h2.618c.608 0 .957-.255.971-.75a1.542 1.542 0 0 0-.056-.424c-.194-.576-1.084-1.984-2.194-3.326-.615-.743-1.222-1.479-1.501-1.879-.187-.261-.258-.445-.249-.621.009-.185.105-.361.249-.607-.026 0 3.358-4.751 3.688-6.352Z"/></svg>