<svg width="38" height="44" viewBox="0 0 38 44" fill="none" xmlns="http://www.w3.org/2000/svg">
<path fill-rule="evenodd" clip-rule="evenodd" d="M12.3147 3.02307C11.8568 3.02307 11.4279 3.38082 11.4279 4.04633V5.81997C11.4279 6.48549 11.8568 6.84323 12.3147 6.84323H25.6852C26.0765 6.84323 26.572 6.41558 26.572 5.81997V4.04633C26.572 3.38081 26.1431 3.02307 25.6852 3.02307H12.3147ZM9.38135 4.04633C9.38135 2.39246 10.5896 0.976562 12.3147 0.976562H25.6852C27.4103 0.976562 28.6186 2.39247 28.6186 4.04633V5.81997C28.6186 7.40732 27.3405 8.88974 25.6852 8.88974H12.3147C10.5896 8.88974 9.38135 7.47384 9.38135 5.81997V4.04633Z" fill="#C09948"/>
<path fill-rule="evenodd" clip-rule="evenodd" d="M3.44648 20.5548C2.85192 20.5548 2.42322 20.9835 2.42322 21.5781V24.375H6.24338V21.5781C6.24338 20.9835 5.81468 20.5548 5.22012 20.5548H3.44648ZM0.376709 21.5781C0.376709 19.8532 1.72166 18.5083 3.44648 18.5083H5.22012C6.94494 18.5083 8.28989 19.8532 8.28989 21.5781V26.4215H0.376709V21.5781Z" fill="#C09948"/>
<path fill-rule="evenodd" clip-rule="evenodd" d="M32.7792 20.5543C32.1847 20.5543 31.756 20.983 31.756 21.5776V24.3745H35.5761V21.5776C35.5761 20.983 35.1474 20.5543 34.5529 20.5543H32.7792ZM29.7095 21.5776C29.7095 19.8528 31.0544 18.5078 32.7792 18.5078H34.5529C36.2777 18.5078 37.6227 19.8528 37.6227 21.5776V26.421H29.7095V21.5776Z" fill="#C09948"/>
<path fill-rule="evenodd" clip-rule="evenodd" d="M6.2439 9.91352C6.2439 8.04932 7.87554 6.84375 9.65475 6.84375H28.278C30.077 6.84375 31.6493 8.05206 31.7553 9.85343L31.7571 9.88345V26.422H6.2439V9.91352ZM9.65475 8.89026C8.70527 8.89026 8.29041 9.45833 8.29041 9.91352V24.3755H29.7106V9.94913C29.6668 9.43795 29.1931 8.89026 28.278 8.89026H9.65475Z" fill="#C09948"/>
<path fill-rule="evenodd" clip-rule="evenodd" d="M0.376709 24.375H37.6232V41.0882C37.6232 42.6766 36.3465 43.9533 34.7581 43.9533H32.6434C31.055 43.9533 29.7783 42.6766 29.7783 41.0882V38.9052C29.7783 38.4471 29.4178 38.0866 28.9597 38.0866H9.04028C8.58215 38.0866 8.22167 38.4471 8.22167 38.9052V41.0882C8.22167 42.6766 6.94494 43.9533 5.35655 43.9533H3.24183C1.65344 43.9533 0.376709 42.6766 0.376709 41.0882V24.375ZM2.42322 26.4215V41.0882C2.42322 41.5463 2.7837 41.9068 3.24183 41.9068H5.35655C5.81468 41.9068 6.17516 41.5463 6.17516 41.0882V38.9052C6.17516 37.3168 7.45189 36.0401 9.04028 36.0401H28.9597C30.548 36.0401 31.8248 37.3168 31.8248 38.9052V41.0882C31.8248 41.5463 32.1852 41.9068 32.6434 41.9068H34.7581C35.2162 41.9068 35.5767 41.5463 35.5767 41.0882V26.4215H2.42322Z" fill="#C09948"/>
<path fill-rule="evenodd" clip-rule="evenodd" d="M36.6 32.2882H1.40002V30.2417H36.6V32.2882Z" fill="#C09948"/>
<path fill-rule="evenodd" clip-rule="evenodd" d="M15.1796 8.54891C14.3967 8.54891 13.8153 9.13031 13.8153 9.91325V24.7164H24.1843V9.91325C24.1843 9.13031 23.6029 8.54891 22.8199 8.54891H15.1796ZM12.4509 9.91325C12.4509 8.37681 13.6432 7.18457 15.1796 7.18457H22.8199C24.3564 7.18457 25.5486 8.37681 25.5486 9.91325V26.0807H12.4509V9.91325Z" fill="#C09948"/>
<path fill-rule="evenodd" clip-rule="evenodd" d="M12.4512 26.0806C11.6683 26.0806 11.0869 26.6621 11.0869 27.445V30.583H26.9132V27.445C26.9132 26.6621 26.3318 26.0806 25.5489 26.0806H12.4512ZM9.72253 27.445C9.72253 25.9085 10.9148 24.7163 12.4512 24.7163H25.5489C27.0853 24.7163 28.2776 25.9085 28.2776 27.445V31.9473H9.72253V27.445Z" fill="#C09948"/>
</svg>
