<svg xmlns="http://www.w3.org/2000/svg" width="36" height="24" fill="none"><path fill="#191A1F" d="M9.2 9.76c-2.5 0-4.353 1.96-4.353 4.48 0 2.52 1.945 4.48 4.353 4.48a4.464 4.464 0 0 0 4.447-4.48c0-2.52-1.946-4.48-4.447-4.48Zm0 7.653c-1.76 0-3.242-1.493-3.242-3.267 0-1.773 1.482-3.266 3.242-3.266s3.15 1.493 3.15 3.266c0 1.774-1.39 3.267-3.15 3.267ZM9.2 12c1.205 0 2.224 1.027 2.224 2.24 0 1.213-1.02 2.24-2.224 2.24-1.204 0-2.223-1.027-2.223-2.24 0-1.213 1.02-2.24 2.223-2.24Zm17.6-2.24c-2.5 0-4.353 1.96-4.353 4.48 0 2.52 1.945 4.48 4.353 4.48 2.409 0 4.354-1.96 4.354-4.48 0-2.52-1.853-4.48-4.354-4.48Zm0 7.653c-1.76 0-3.242-1.493-3.242-3.267 0-1.773 1.482-3.266 3.242-3.266s3.15 1.493 3.15 3.266c0 1.774-1.39 3.267-3.15 3.267Zm0-5.413c1.205 0 2.223 1.027 2.223 2.24 0 1.213-1.018 2.24-2.223 2.24-1.204 0-2.223-1.027-2.223-2.24 0-1.213 1.02-2.24 2.223-2.24Zm6.114-4.2L35.6 5.28h-5.28C27.356 2.853 22.54.8 18 .8 13.461.8 8.645 2.853 5.68 5.28H.4l2.687 2.706C1.419 9.48.4 11.72.4 14.24c0 4.946 3.984 8.96 8.8 8.96 2.224 0 4.261-.933 5.836-2.24L18 23.2l2.965-2.24v-.187c1.667 1.307 3.705 2.24 5.835 2.24 4.817 0 8.8-4.013 8.8-8.96 0-2.333-1.019-4.573-2.686-6.253Zm-7.318-2.52c-4.168.56-7.503 4.013-7.596 8.4-.277-4.294-3.52-7.934-7.78-8.4 2.223-1.494 4.816-2.24 7.78-2.24 2.965 0 5.558.746 7.596 2.24ZM9.2 20.96c-3.705 0-6.576-2.987-6.576-6.72 0-3.733 2.964-6.72 6.576-6.72 3.613 0 6.577 2.987 6.577 6.72 0 3.733-2.871 6.72-6.577 6.72Zm17.6 0c-3.705 0-6.576-2.987-6.576-6.72 0-3.733 2.964-6.72 6.576-6.72 3.613 0 6.577 2.987 6.577 6.72 0 3.733-2.871 6.72-6.577 6.72Z"/></svg>