<svg width="42" height="42" viewBox="0 0 42 42" fill="none" xmlns="http://www.w3.org/2000/svg">
<path fill-rule="evenodd" clip-rule="evenodd" d="M21 1.875C10.4376 1.875 1.875 10.4376 1.875 21C1.875 31.5624 10.4376 40.125 21 40.125C31.5624 40.125 40.125 31.5624 40.125 21C40.125 10.4376 31.5624 1.875 21 1.875ZM0.375 21C0.375 9.60913 9.60913 0.375 21 0.375C32.3909 0.375 41.625 9.60913 41.625 21C41.625 32.3909 32.3909 41.625 21 41.625C9.60913 41.625 0.375 32.3909 0.375 21ZM19.5 8.25C19.9142 8.25 20.25 8.58579 20.25 9V33C20.25 33.4142 19.9142 33.75 19.5 33.75C19.0858 33.75 18.75 33.4142 18.75 33V9C18.75 8.58579 19.0858 8.25 19.5 8.25ZM28.5 12C28.9142 12 29.25 12.3358 29.25 12.75V29.25C29.25 29.6642 28.9142 30 28.5 30C28.0858 30 27.75 29.6642 27.75 29.25V12.75C27.75 12.3358 28.0858 12 28.5 12ZM16.5 12.75C16.9142 12.75 17.25 13.0858 17.25 13.5V28.5C17.25 28.9142 16.9142 29.25 16.5 29.25C16.0858 29.25 15.75 28.9142 15.75 28.5V13.5C15.75 13.0858 16.0858 12.75 16.5 12.75ZM10.5 14.25C10.9142 14.25 11.25 14.5858 11.25 15V27C11.25 27.4142 10.9142 27.75 10.5 27.75C10.0858 27.75 9.75 27.4142 9.75 27V15C9.75 14.5858 10.0858 14.25 10.5 14.25ZM22.5 14.25C22.9142 14.25 23.25 14.5858 23.25 15V27C23.25 27.4142 22.9142 27.75 22.5 27.75C22.0858 27.75 21.75 27.4142 21.75 27V15C21.75 14.5858 22.0858 14.25 22.5 14.25ZM13.5 17.25C13.9142 17.25 14.25 17.5858 14.25 18V24C14.25 24.4142 13.9142 24.75 13.5 24.75C13.0858 24.75 12.75 24.4142 12.75 24V18C12.75 17.5858 13.0858 17.25 13.5 17.25ZM34.5 17.25C34.9142 17.25 35.25 17.5858 35.25 18V24C35.25 24.4142 34.9142 24.75 34.5 24.75C34.0858 24.75 33.75 24.4142 33.75 24V18C33.75 17.5858 34.0858 17.25 34.5 17.25ZM25.5 18C25.9142 18 26.25 18.3358 26.25 18.75V23.25C26.25 23.6642 25.9142 24 25.5 24C25.0858 24 24.75 23.6642 24.75 23.25V18.75C24.75 18.3358 25.0858 18 25.5 18ZM7.5 18.75C7.91421 18.75 8.25 19.0858 8.25 19.5V22.5C8.25 22.9142 7.91421 23.25 7.5 23.25C7.08579 23.25 6.75 22.9142 6.75 22.5V19.5C6.75 19.0858 7.08579 18.75 7.5 18.75ZM31.5 18.75C31.9142 18.75 32.25 19.0858 32.25 19.5V22.5C32.25 22.9142 31.9142 23.25 31.5 23.25C31.0858 23.25 30.75 22.9142 30.75 22.5V19.5C30.75 19.0858 31.0858 18.75 31.5 18.75Z" fill="#C09948"/>
</svg>
