<svg xmlns="http://www.w3.org/2000/svg" width="26" height="26" fill="none"><path fill="currentColor" d="M13 .2C5.931.2.2 5.931.2 13c0 2.402.674 4.64 1.825 6.56L.315 25.8l6.372-1.673A12.732 12.732 0 0 0 13 25.8c7.069 0 12.8-5.731 12.8-12.8C25.8 5.931 20.069.2 13 .2ZM8.619 7.03c.208 0 .421-.002.606.008.228.005.477.022.715.548.282.625.898 2.193.977 2.352.079.159.135.346.025.554-.105.213-.16.342-.313.531-.159.184-.333.411-.477.55-.159.159-.323.333-.14.65.184.317.821 1.355 1.763 2.194 1.21 1.082 2.232 1.414 2.55 1.573.318.159.502.134.685-.08.19-.207.793-.921 1.007-1.239.208-.318.42-.263.708-.158.292.104 1.85.872 2.169 1.03.318.16.526.239.606.368.082.133.082.768-.181 1.508-.264.74-1.557 1.454-2.138 1.504-.585.055-1.132.263-3.806-.79-3.226-1.27-5.26-4.574-5.419-4.787-.159-.208-1.291-1.718-1.291-3.275 0-1.563.819-2.328 1.106-2.646.292-.318.634-.396.848-.396Z"/></svg>