<svg xmlns="http://www.w3.org/2000/svg" width="200" height="41" fill="none"><g fill="#BE9B46" clip-path="url(#a)"><path d="M197.224 29.05v.747h2.022v10.456h-2.022V41H200V29.05h-2.776ZM141.846 41h2.776v-.747h-2.023V29.797h2.023v-.748h-2.776V41ZM153.917 32.405h-1.06l-2.051 2.102v-2.102h-.822v5.274h.822v-2.531l2.051 2.53h1.075l-2.412-2.882 2.397-2.391ZM155.813 32.405h-.821v5.5l3.587-3.78v3.554h.822v-5.496l-3.588 3.78v-3.558ZM164.073 34.468h-2.261v-2.063h-.821v5.274h.821v-2.454h2.261v2.454h.822v-5.274h-.822v2.063ZM169.007 32.304c-1.584 0-2.766 1.195-2.766 2.747 0 1.553 1.172 2.734 2.766 2.734 1.595 0 2.767-1.196 2.767-2.733 0-1.538-1.177-2.748-2.767-2.748Zm0 4.729c-1.123 0-1.915-.82-1.915-1.982 0-1.161.788-1.995 1.915-1.995 1.128 0 1.916.829 1.916 1.995 0 1.167-.788 1.982-1.916 1.982ZM172.586 33.162h1.215v4.517h.822v-4.517h1.215v-.757h-3.252v.757ZM176.898 37.679h2.931v-.752h-2.11v-1.75h2.052v-.752h-2.052v-1.263h2.11v-.757h-2.931v5.274ZM180.632 37.679h.879l.584-1.283h2.256l.559 1.283h.88l-2.523-5.573-2.645 5.573h.01Zm1.793-2.035.822-1.779.788 1.78h-1.61ZM186.052 33.162h1.216v4.517h.821v-4.517h1.211v-.757h-3.248v.757ZM192.693 32.694c-.403-.265-.812-.284-1.162-.284h-1.167v5.274h.822v-2.14h.355c.384 0 .88-.059 1.298-.415.267-.227.515-.603.515-1.153 0-.39-.131-.935-.661-1.282Zm-1.152 2.092h-.355v-1.624h.35c.282 0 1.002.038 1.002.805 0 .766-.637.82-.992.82h-.005ZM21.347 2.136l-.612 1.663 7.316 19.895h1.22L21.348 2.136ZM23.263.689h-1.226l8.465 23.01h1.225L23.263.688Zm2.445 0h-1.22l8.464 23.01h1.196l-.02-.126L25.708.69Zm-14.677 0H3.252L0 23.7h19.495L11.03.688Zm20.807 6.696L30.89.69h-1.516l2.464 6.696ZM33.36 18.18l-.758-5.394L28.153.688h-1.225l6.432 17.49ZM20.127 5.467l-.613 1.668 6.092 16.564h1.225L20.127 5.467Zm.593 18.232h1.22l-4.254-11.57-.612 1.668 3.646 9.901ZM18.907 8.797l-.613 1.663 4.866 13.233h1.226l-5.48-14.901v.005ZM53.142.149a20.485 20.485 0 0 0-1.264-.115l7.92 21.529c.325-.26.631-.535.923-.82L53.141.15Zm2.66.584a13.9 13.9 0 0 0-1.357-.357l7.141 19.403c.292-.366.56-.747.803-1.142L55.8.733Zm2.94 1.35a12.294 12.294 0 0 0-1.521-.815l5.887 16c.243-.55.442-1.119.598-1.697L58.747 2.083h-.005Zm-3.058 21.606c.375-.116.735-.241 1.085-.38L48.25.158c-.394.053-.778.12-1.147.198l8.58 23.332Zm8.42-10.365c.035-.376.05-.752.05-1.133 0-3.287-1.216-6.512-3.71-8.817l3.66 9.95ZM50.639 0c-.413 0-.812.02-1.206.043l8.382 22.788c.35-.179.685-.376 1.011-.584L50.638 0Zm-4.657.632c-5.854 1.696-8.678 6.55-8.678 11.56 0 6.213 4.341 12.191 13.423 12.191 1.39 0 2.673-.145 3.845-.4L45.981.632Zm53.953.057 8.459 23.01h1.221L101.159.688h-1.225Zm2.446 0 8.459 23.01h1.22L103.605.688H102.38Zm6.665 11.478 4.239 11.527h1.225l-2.756-7.496-2.703-4.03h-.005ZM91.966.69V23.7h15.207L98.714.688h-6.748Zm23.768 23.01h1.055l-2.328-3.471 1.278 3.47h-.005Zm-1.278-20.103L113.386.69h-1.225l1.478 4.026.812-1.124.005.005Zm2.1-2.907h-1.945l.657 1.784 1.288-1.784Zm-5.343 7.39L108.496.69h-1.226l3.131 8.509.812-1.119Zm-1.619 2.242L106.05.69h-1.225l3.953 10.75.811-1.123.005.005Zm3.243-4.483L110.946.689h-1.225l2.304 6.267.812-1.123v.005ZM158.832.689l8.459 23.01h1.225L160.057.688h-1.225Zm3.671 0h-1.221l8.46 23.01h1.225L162.503.688Zm-6.116 0 8.459 23.01h1.225L157.607.688h-1.225.005ZM144.248 23.7h16.932L152.716.688l-8.473 23.01h.005Zm9.694-23.01 8.459 23.01h1.225L155.162.688h-1.22Zm-79.59.825c-3.592 1.822-6.431 5.322-6.431 10.678 0 7.36 5.367 12.191 12.927 12.191.67 0 1.298-.038 1.881-.106L74.348 1.514h.005Zm4.386-1.37c-.384.054-.763.126-1.142.208l8.488 23.077a11.2 11.2 0 0 0 .992-.458v-.174L78.733.145h.005Zm5.144 23.95c.393-.082.768-.174 1.118-.28L76.477.651a14.36 14.36 0 0 0-1.079.385l8.479 23.053.005.005Zm3.194-17.919v-4.43c-.603-.414-1.289-.733-1.999-.988l1.999 5.423v-.005Zm0 6.653V9.502L83.706.347C83.265.246 82.827.17 82.4.116l4.677 12.707v.005Zm0 6.648v-3.327L81.135.014C80.989.01 80.843 0 80.707 0c-.263 0-.525.01-.793.024l7.157 19.452h.005Zm48.99 4.059c.398-.068.777-.15 1.127-.251L128.88.694h-1.225l8.406 22.84h.005ZM133.781.699c-.132 0-.263-.01-.399-.01h-.827l7.662 20.826c.331-.347.603-.714.817-1.1L133.776.7h.005Zm1.254.087 3.549 9.646c.33-.236.646-.501.924-.81l-3.16-8.59a9.66 9.66 0 0 0-1.313-.246ZM126.44.689h-6.15v23.005h13.719c.306 0 .593-.02.88-.034L126.435.694l.005-.005Zm13.865 7.767a4.372 4.372 0 0 0 .437-1.914c0-1.268-.355-3.703-2.98-4.995l2.543 6.913v-.005ZM131.33.694h-1.225l8.163 22.19a7.258 7.258 0 0 0 1.016-.564L131.33.694Zm10.535 16.598c0 .463-.058.988-.194 1.538l-2.348-6.393c1.56 1.046 2.542 2.748 2.542 4.85"/></g><defs><clipPath id="a"><path fill="#fff" d="M0 0h200v41H0z"/></clipPath></defs></svg>